<svg xmlns="http://www.w3.org/2000/svg" viewBox="0 0 191.48 346.16"><defs><style>.cls-1{fill:#b6deff;}.cls-2{fill:#d3d3d3;}.cls-3{fill:#afafaf;}.cls-4{fill:#edf4f4;}.cls-5{fill:#2660aa;}.cls-6{fill:#c1c1c1;}.cls-7{fill:#5686da;}.cls-8{fill:none;stroke:#fff;stroke-linecap:round;stroke-miterlimit:10;stroke-width:6px;opacity:0.65;}</style></defs><g id="Calque_2" data-name="Calque 2"><g id="Calque_1-2" data-name="Calque 1"><g id="flotement"><ellipse class="cls-1" cx="120.26" cy="330.2" rx="24.25" ry="4.4"/><ellipse class="cls-1" cx="120.26" cy="343.96" rx="12.12" ry="2.2"/></g><g id="buste"><path class="cls-2" d="M174.41,222.9v49.58a45.79,45.79,0,0,1-45.79,45.79H111.9a45.79,45.79,0,0,1-45.78-45.79V222.9a45.76,45.76,0,0,1,45.78-45.78h16.72A45.79,45.79,0,0,1,174.41,222.9Z"/><g id="écran"><path id="écran-2" data-name="écran" class="cls-3" d="M162.46,252A20.88,20.88,0,0,1,154.31,269c-2,1.56-4.57,3-10.71,4.52A87.6,87.6,0,0,1,121,276.19c-.07-.13-.15-.26-.21-.39l-.21.39a87.69,87.69,0,0,1-22.57-2.63c-6.14-1.56-8.71-3-10.71-4.52-.44-.33-.85-.68-1.24-1a21.44,21.44,0,0,1-6.91-16.12q.07-9.46.14-18.93a21.52,21.52,0,0,1,4.86-13.68A21.25,21.25,0,0,1,87.55,216c2-1.55,4.58-2.95,10.71-4.51a87.32,87.32,0,0,1,22.57-2.62,87.24,87.24,0,0,1,22.56,2.62c6.14,1.56,8.7,3,10.71,4.51a21.25,21.25,0,0,1,3.36,3.25A21.56,21.56,0,0,1,162.32,233Q162.4,242.47,162.46,252Z"/><path id="écran-3" data-name="écran" class="cls-4" d="M153.32,249.9a16.62,16.62,0,0,1-3.74,10.79,16.26,16.26,0,0,1-2.62,2.54c-1.57,1.21-3.57,2.3-8.36,3.52A68.35,68.35,0,0,1,121,268.8l-.16-.3-.17.3a68.35,68.35,0,0,1-17.61-2.05c-4.79-1.22-6.8-2.31-8.36-3.52-.34-.27-.66-.54-1-.81a16.72,16.72,0,0,1-5.39-12.58q0-7.4.11-14.78a16.55,16.55,0,0,1,6.41-13.21c1.57-1.21,3.58-2.3,8.36-3.52a68.44,68.44,0,0,1,17.62-2.05,68.35,68.35,0,0,1,17.61,2.05c4.79,1.22,6.79,2.31,8.35,3.52a16.34,16.34,0,0,1,2.63,2.54,16.81,16.81,0,0,1,3.79,10.67Q153.27,242.49,153.32,249.9Z"/><g id="_404" data-name="404"><path class="cls-5" d="M95.57,247.44,103.2,231h3.29L99,247.25h11.15v2.95H95.57Zm9.81-7.12h3.11v13.39h-3.11Z"/><path class="cls-5" d="M115.75,252.22a6.55,6.55,0,0,1-1.65-4.75V237.13a6.5,6.5,0,1,1,13,0v10.34a6.51,6.51,0,0,1-1.66,4.76,7.74,7.74,0,0,1-9.67,0Zm7.33-2.21a3.64,3.64,0,0,0,.81-2.54V237.13a3.68,3.68,0,0,0-.8-2.54,4,4,0,0,0-5,0,3.68,3.68,0,0,0-.8,2.54v10.34a3.64,3.64,0,0,0,.81,2.54,4,4,0,0,0,5,0Z"/><path class="cls-5" d="M131.46,247.44,139.09,231h3.28l-7.44,16.28h11.15v2.95H131.46Zm9.8-7.12h3.11v13.39h-3.11Z"/></g></g></g><g id="cou"><path class="cls-6" d="M138.87,173.23l-1.16,5.29A15.2,15.2,0,1,1,108,172l1.16-5.3a15.2,15.2,0,0,0,29.7,6.49Z"/><path class="cls-2" d="M140,167.92l-1.16,5.31a15.2,15.2,0,0,1-29.7-6.49l.17-.8a16.32,16.32,0,0,1,.68-2.22,15.18,15.18,0,0,0,29.33,6.41A15.76,15.76,0,0,0,140,167.92Z"/><path class="cls-6" d="M140.52,165.65l-.5,2.27a15.76,15.76,0,0,1-.68,2.21A15.18,15.18,0,0,1,110,163.72a16.52,16.52,0,0,1,.3-2.29l.35-1.58.41.21a11.73,11.73,0,0,0,.07,1.33,15.19,15.19,0,0,0,28.14,6.15,15.43,15.43,0,0,0,.94-1.86Z"/><path class="cls-2" d="M140.23,165.68a15.43,15.43,0,0,1-.94,1.86,15.19,15.19,0,0,1-28.14-6.15,11.73,11.73,0,0,1-.07-1.33c.76.38,1.52.74,2.3,1.08h0A15.16,15.16,0,0,0,138,165.81h0C138.74,165.78,139.49,165.74,140.23,165.68Z"/><path class="cls-6" d="M138,165.81a15.16,15.16,0,0,1-24.59-4.66,55.33,55.33,0,0,0,22.42,4.71C136.54,165.86,137.26,165.85,138,165.81Z"/></g><g id="tete"><path class="cls-6" d="M135.87,34.06h-.06c-1.48,0-2.95.06-4.4.17-.45-.8-.93-1.61-1.45-2.41C120.85,17.7,107,12.53,101.47,11l1.1-3.85c6,1.69,20.9,7.28,30.75,22.54A50,50,0,0,1,135.87,34.06Z"/><path class="cls-2" d="M175.18,50.36a55.54,55.54,0,0,0-39.31-16.3h-.06c-1.48,0-2.95.06-4.4.17a55.68,55.68,0,0,0-51.27,55.5v20.46a55.63,55.63,0,0,0,30.53,49.66l.41.21c.76.38,1.52.74,2.3,1.08h0a55.33,55.33,0,0,0,22.42,4.71c.73,0,1.45,0,2.17-.05h0c.75,0,1.5-.07,2.24-.13l.29,0a55.65,55.65,0,0,0,51-55.46V89.73A55.54,55.54,0,0,0,175.18,50.36Zm-58.69,48a6.68,6.68,0,1,1,6.68-6.68A6.68,6.68,0,0,1,116.49,98.4Zm54.13,0a6.68,6.68,0,1,1,6.68-6.68A6.68,6.68,0,0,1,170.62,98.4Z"/><path class="cls-5" d="M123.17,91.72A6.68,6.68,0,1,1,116.49,85,6.68,6.68,0,0,1,123.17,91.72Z"/><path class="cls-5" d="M177.3,91.72A6.68,6.68,0,1,1,170.62,85,6.68,6.68,0,0,1,177.3,91.72Z"/><path class="cls-7" d="M107.39,14.5a7.24,7.24,0,0,1-2.67.95,7.88,7.88,0,0,1-8-4.32A7.9,7.9,0,0,1,98,2.54a7.55,7.55,0,0,1,2.5-1.8,9.25,9.25,0,0,1,4.1-.73c.21,0,5.06.31,6.77,3.7S111.05,12.32,107.39,14.5Z"/></g><g id="bras"><path class="cls-6" d="M83.8,186.75a45.94,45.94,0,0,0-14.17,18.54L5.79,168.43l-.21-.14a11.54,11.54,0,0,0,12.28-.17l15.87-10.28Z"/><path class="cls-6" d="M85.38,124.4,33.73,157.84l-16.38-9.45A11.56,11.56,0,0,0,4.93,149c.11-.08.22-.17.35-.25L74,104.2l.26-.16A43.67,43.67,0,0,0,85.38,124.4Z"/><path class="cls-2" d="M17.86,168.12l15.87-10.28-16.37-9.45A11.58,11.58,0,0,0,4.93,149c-.15.11-.31.21-.46.33s-.33.27-.49.41l-.36.32c-.18.17-.35.35-.53.54l-.24.26c-.19.22-.37.45-.55.69a1.33,1.33,0,0,0-.14.19q-.29.41-.54.84l-.09.13c-.17.3-.32.6-.46.9,0,.05-.05.1-.07.16a8.78,8.78,0,0,0-.33.85,2.34,2.34,0,0,0-.09.24,7.59,7.59,0,0,0-.22.78l-.09.32c-.05.26-.1.53-.14.8,0,.1,0,.2,0,.3,0,.33-.06.65-.07,1,0,0,0,.08,0,.12a11.77,11.77,0,0,0,.71,4.28l0,.08c.09.26.21.5.32.75.05.1.09.22.15.32s.19.37.29.55.18.32.28.48.2.3.31.45.23.34.36.5.24.3.37.44l.37.42.46.45.35.32c.18.16.38.32.58.47s.2.16.31.23a8.09,8.09,0,0,0,.69.44A11.54,11.54,0,0,0,17.86,168.12Z"/><path class="cls-3" d="M138.16,55.72a43.31,43.31,0,0,0-19.35-5.47c-.64,0-1.28,0-1.93,0a43.79,43.79,0,1,0,21.28,5.52Zm2.66,53.65a28.45,28.45,0,1,1-23.94-43.84,27.91,27.91,0,0,1,8.06,1.17,28.45,28.45,0,0,1,15.88,42.67Z"/><path class="cls-8" d="M114.57,73.94A18.13,18.13,0,0,0,96.44,92.07"/></g></g></g></svg>