<svg xmlns="http://www.w3.org/2000/svg" viewBox="0 0 314.75 346.16"><defs><style>.cls-1{fill:#809eb2;}.cls-2{fill:#848484;}.cls-3{fill:#606060;}.cls-4{fill:#a2a5a5;}.cls-5{fill:#2660aa;}.cls-6{fill:#727272;}.cls-7{fill:#385a8c;}.cls-8,.cls-9{fill:#ffc;}.cls-9{opacity:0.5;}</style></defs><g id="Calque_2" data-name="Calque 2"><g id="Calque_1-2" data-name="Calque 1"><g id="flotement"><ellipse class="cls-1" cx="143.53" cy="330.2" rx="24.25" ry="4.4"/><ellipse class="cls-1" cx="143.53" cy="343.96" rx="12.12" ry="2.2"/></g><g id="buste"><path class="cls-2" d="M151.88,177.12H135.16a45.56,45.56,0,0,0-28.1,9.63,46.48,46.48,0,0,0-6.14,5.76,45.55,45.55,0,0,0-10.38,20.12l-.12.54a45.82,45.82,0,0,0-1,9.73v49.58a45.79,45.79,0,0,0,45.78,45.79h16.72a45.79,45.79,0,0,0,45.79-45.79V222.9A45.79,45.79,0,0,0,151.88,177.12Zm29.06,88.68a21.73,21.73,0,0,1-3.37,3.24c-2,1.56-4.57,3-10.7,4.52a87.69,87.69,0,0,1-22.57,2.63l-.21-.39-.21.39a87.75,87.75,0,0,1-22.57-2.63c-6.14-1.56-8.7-3-10.71-4.52-.43-.33-.85-.68-1.24-1a21.44,21.44,0,0,1-6.91-16.12q.08-9.46.14-18.93A21.17,21.17,0,0,1,110.81,216c2-1.55,4.58-2.95,10.71-4.51a87.32,87.32,0,0,1,22.57-2.62,87.32,87.32,0,0,1,22.57,2.62c6.13,1.56,8.7,3,10.7,4.51a21.77,21.77,0,0,1,3.37,3.25A21.55,21.55,0,0,1,185.58,233l.15,19A21.32,21.32,0,0,1,180.94,265.8Z"/><path class="cls-2" d="M185.73,252a21.32,21.32,0,0,1-4.79,13.83,21.73,21.73,0,0,1-3.37,3.24c-2,1.56-4.57,3-10.7,4.52a87.69,87.69,0,0,1-22.57,2.63l-.21-.39-.21.39a87.75,87.75,0,0,1-22.57-2.63c-6.14-1.56-8.7-3-10.71-4.52-.43-.33-.85-.68-1.24-1a21.44,21.44,0,0,1-6.91-16.12q.08-9.46.14-18.93A21.17,21.17,0,0,1,110.81,216c2-1.55,4.58-2.95,10.71-4.51a87.32,87.32,0,0,1,22.57-2.62,87.32,87.32,0,0,1,22.57,2.62c6.13,1.56,8.7,3,10.7,4.51a21.77,21.77,0,0,1,3.37,3.25A21.55,21.55,0,0,1,185.58,233Z"/><g id="ecran"><path class="cls-3" d="M185.73,252a21.32,21.32,0,0,1-4.79,13.83,21.73,21.73,0,0,1-3.37,3.24c-2,1.56-4.57,3-10.7,4.52a87.69,87.69,0,0,1-22.57,2.63l-.21-.39-.21.39a87.75,87.75,0,0,1-22.57-2.63c-6.14-1.56-8.7-3-10.71-4.52-.43-.33-.85-.68-1.24-1a21.44,21.44,0,0,1-6.91-16.12q.08-9.46.14-18.93A21.17,21.17,0,0,1,110.81,216c2-1.55,4.58-2.95,10.71-4.51a87.32,87.32,0,0,1,22.57-2.62,87.32,87.32,0,0,1,22.57,2.62c6.13,1.56,8.7,3,10.7,4.51a21.77,21.77,0,0,1,3.37,3.25A21.55,21.55,0,0,1,185.58,233Z"/><path class="cls-4" d="M176.59,249.9a16.4,16.4,0,0,1-6.36,13.33c-1.57,1.21-3.57,2.3-8.36,3.52a68.35,68.35,0,0,1-17.61,2.05l-.17-.3-.16.3a68.5,68.5,0,0,1-17.62-2.05c-4.79-1.22-6.79-2.31-8.35-3.52-.34-.27-.67-.54-1-.81a16.77,16.77,0,0,1-5.4-12.58q.06-7.4.11-14.78a16.82,16.82,0,0,1,3.8-10.67,16.26,16.26,0,0,1,2.62-2.54c1.57-1.21,3.57-2.3,8.36-3.52a68.35,68.35,0,0,1,17.61-2.05,68.38,68.38,0,0,1,17.62,2.05c4.79,1.22,6.79,2.31,8.35,3.52a16.49,16.49,0,0,1,6.42,13.21Q176.54,242.49,176.59,249.9Z"/><path class="cls-5" d="M118.84,247.44,126.47,231h3.28l-7.44,16.28h11.15v2.95H118.84Zm9.8-7.12h3.12v13.39h-3.12Z"/><path class="cls-5" d="M139,252.22a6.55,6.55,0,0,1-1.65-4.75V237.13a6.5,6.5,0,1,1,13,0v10.34a6.55,6.55,0,0,1-1.66,4.76,7.74,7.74,0,0,1-9.67,0Zm7.33-2.21a3.64,3.64,0,0,0,.81-2.54V237.13a3.68,3.68,0,0,0-.8-2.54,4,4,0,0,0-5,0,3.64,3.64,0,0,0-.8,2.54v10.34a3.68,3.68,0,0,0,.8,2.54,4,4,0,0,0,5,0Z"/><path class="cls-5" d="M154.73,247.44,162.36,231h3.28l-7.44,16.28h11.15v2.95H154.73Zm9.8-7.12h3.11v13.39h-3.11Z"/></g></g><g id="cou"><path class="cls-6" d="M162.13,173.23,161,178.52a15.2,15.2,0,1,1-29.7-6.48l1.15-5.3a15.2,15.2,0,0,0,29.7,6.49Z"/><path class="cls-2" d="M163.29,167.92l-1.16,5.31a15.2,15.2,0,0,1-29.7-6.49l.18-.8a16.32,16.32,0,0,1,.68-2.22,15.18,15.18,0,0,0,29.32,6.41A14.54,14.54,0,0,0,163.29,167.92Z"/><path class="cls-6" d="M163.79,165.65l-.5,2.27a15.76,15.76,0,0,1-.68,2.21,15.18,15.18,0,0,1-29.32-6.41,16.52,16.52,0,0,1,.3-2.29l.35-1.58.41.21a11.73,11.73,0,0,0,.07,1.33,15.19,15.19,0,0,0,28.14,6.15,15.43,15.43,0,0,0,.94-1.86Z"/><path class="cls-2" d="M163.5,165.68a15.43,15.43,0,0,1-.94,1.86,15.19,15.19,0,0,1-28.14-6.15,11.73,11.73,0,0,1-.07-1.33c.76.38,1.52.74,2.3,1.08h0a15.16,15.16,0,0,0,24.59,4.66h0C162,165.78,162.76,165.74,163.5,165.68Z"/><path class="cls-6" d="M161.25,165.81a15.16,15.16,0,0,1-24.59-4.66,55.33,55.33,0,0,0,22.42,4.71C159.81,165.86,160.53,165.85,161.25,165.81Z"/></g><g id="tete"><path class="cls-2" d="M159.14,34.06h-.06c-1.48,0-3,.06-4.4.17-.45-.8-.93-1.61-1.45-2.41-9.11-14.12-23-19.29-28.49-20.86l1.1-3.85c6,1.69,20.9,7.28,30.75,22.54A50,50,0,0,1,159.14,34.06Z"/><path class="cls-2" d="M198.45,50.36a55.54,55.54,0,0,0-39.31-16.3h-.06c-1.48,0-3,.06-4.4.17a55.68,55.68,0,0,0-51.27,55.5v20.46a55.63,55.63,0,0,0,30.53,49.66l.41.21c.76.38,1.52.74,2.3,1.08h0a55.33,55.33,0,0,0,22.42,4.71c.73,0,1.45,0,2.17-.05h0c.75,0,1.5-.07,2.24-.13l.29,0a55.65,55.65,0,0,0,51-55.46V89.73A55.54,55.54,0,0,0,198.45,50.36Zm-58.69,48a6.68,6.68,0,1,1,6.68-6.68A6.68,6.68,0,0,1,139.76,98.4Zm54.13,0a6.68,6.68,0,1,1,6.68-6.68A6.68,6.68,0,0,1,193.89,98.4Z"/><path class="cls-5" d="M146.44,91.72A6.68,6.68,0,1,1,139.76,85,6.68,6.68,0,0,1,146.44,91.72Z"/><path class="cls-5" d="M200.57,91.72A6.68,6.68,0,1,1,193.89,85,6.68,6.68,0,0,1,200.57,91.72Z"/><path class="cls-7" d="M130.66,14.5a7.24,7.24,0,0,1-2.67.95,7.88,7.88,0,0,1-8-4.32,7.9,7.9,0,0,1,1.33-8.59,7.55,7.55,0,0,1,2.5-1.8,9.25,9.25,0,0,1,4.1-.73c.21,0,5.06.31,6.77,3.7S134.32,12.32,130.66,14.5Z"/></g><path class="cls-6" d="M100.92,192.51a45.55,45.55,0,0,0-10.38,20.12l-.12.54L5.77,164.3A11.5,11.5,0,0,1,.5,157.62a11.86,11.86,0,0,0,1,2.38,11.56,11.56,0,0,0,15.8,4.23l17.31-10Z"/><path class="cls-6" d="M17.35,144.26l17.3,10L91.37,121.5a11.57,11.57,0,1,0-11.57-20l-74,42.74a11.56,11.56,0,0,0-5.5,7.5,11.91,11.91,0,0,1,1.26-3.2A11.57,11.57,0,0,1,17.35,144.26Z"/><path class="cls-3" d="M117.64,106.75c0,13.73-5.1,24.85-11.4,24.85s-27.41-11.12-27.41-24.85S99.94,81.9,106.24,81.9,117.64,93,117.64,106.75Z"/><ellipse class="cls-8" cx="106.11" cy="107.02" rx="9.14" ry="19.92"/><path class="cls-9" d="M109.31,88.65v37.2l201.08,102.6c2.4,1.22,4.36,0,4.36-2.68V4.56c0-2.51-1.88-3.75-4.19-2.75Z"/><path class="cls-2" d="M17.35,164.23l17.3-10-17.3-10a11.57,11.57,0,0,0-15.81,4.23,11.91,11.91,0,0,0-1.26,3.2.36.36,0,0,1,0,.1c-.06.3-.12.61-.16.91,0,.11,0,.22,0,.33s0,.46,0,.7,0,.34,0,.51,0,.35,0,.52,0,.47,0,.7,0,.22,0,.33c0,.3.1.61.16.91a.36.36,0,0,1,0,.1A12,12,0,0,0,1.54,160,11.57,11.57,0,0,0,17.35,164.23Z"/></g></g></svg>