<svg xmlns="http://www.w3.org/2000/svg" viewBox="0 0 287.43 280.04"><defs><style>.cls-1{fill:#5686da;}.cls-2{fill:#3180c9;}.cls-3{fill:#a5bcd7;}.cls-4{fill:#2660aa;}.cls-5{fill:#fff;}</style></defs><g id="Calque_2" data-name="Calque 2"><g id="Calque_1-2" data-name="Calque 1"><g id="edtLogo"><g id="edt"><rect id="carré" class="cls-1" x="114.27" y="194.48" width="46.64" height="42.2"/><rect id="carré-2" data-name="carré" class="cls-2" x="114.27" y="77.07" width="46.64" height="46.71"/><rect id="carré-3" data-name="carré" class="cls-3" x="67.63" y="77.07" width="46.64" height="46.71"/><rect id="carré-4" data-name="carré" class="cls-3" x="21" y="135.78" width="46.63" height="46.7"/><rect id="carré-5" data-name="carré" class="cls-3" x="67.63" y="194.48" width="46.64" height="42.2"/><rect id="carré-6" data-name="carré" class="cls-2" x="67.63" y="135.78" width="46.64" height="46.7"/><rect id="carré-7" data-name="carré" class="cls-1" x="21" y="77.07" width="46.63" height="46.71"/><g id="cadre"><path class="cls-4" d="M216.54,0H41.13A41.18,41.18,0,0,0,0,41.14v175.4a41.18,41.18,0,0,0,41.13,41.14H216.54a41.19,41.19,0,0,0,41.14-41.14V41.14A41.19,41.19,0,0,0,216.54,0Zm20.14,216.54a20.16,20.16,0,0,1-20.14,20.14H41.13A20.15,20.15,0,0,1,21,216.54V194.48H190.85a6,6,0,0,0,0-12H21v-46.7H190.85a6,6,0,0,0,0-12H21V77.07H189.57a6,6,0,0,0,0-12H21V41.14A20.15,20.15,0,0,1,41.13,21H216.54a20.16,20.16,0,0,1,20.14,20.14Z"/></g><g id="points"><circle id="point" class="cls-4" cx="82.34" cy="42.35" r="3.51"/><circle id="point-2" data-name="point" class="cls-4" cx="113.34" cy="42.35" r="3.51"/><circle id="point-3" data-name="point" class="cls-4" cx="144.34" cy="42.35" r="3.51"/><circle id="point-4" data-name="point" class="cls-4" cx="175.34" cy="42.35" r="3.51"/></g></g><g id="montre"><circle class="cls-5" cx="241.6" cy="234.21" r="39.83"/><path class="cls-4" d="M241.6,280a45.83,45.83,0,1,1,45.83-45.83A45.88,45.88,0,0,1,241.6,280Zm0-79.66a33.83,33.83,0,1,0,33.83,33.83A33.87,33.87,0,0,0,241.6,200.38Z"/><circle class="cls-4" cx="241.6" cy="234.21" r="3.98"/><rect class="cls-4" x="248.21" y="230.81" width="4.09" height="24.49" rx="2.04" transform="translate(-98.57 248.15) rotate(-45)"/><rect class="cls-4" x="239.55" y="218.57" width="4.09" height="15.64" rx="2.04"/></g></g></g></g></svg>