<svg xmlns="http://www.w3.org/2000/svg" viewBox="0 0 196.6 126.45"><defs><style>.cls-1{fill:#d3d3d3;}.cls-2{fill:#878787;}.cls-3{fill:#a8a8a8;}</style></defs><g id="Calque_2" data-name="Calque 2"><g id="Calque_1-2" data-name="Calque 1"><rect class="cls-1" width="196.6" height="116.68" rx="5.79"/><rect class="cls-2" x="7.15" y="11.74" width="113.9" height="8.36" rx="4.18"/><rect class="cls-2" x="7.91" y="36.63" width="76.67" height="8.36" rx="4.18"/><circle class="cls-3" cx="145.72" cy="49.88" r="26.42"/><path class="cls-3" d="M189.64,110a27.29,27.29,0,0,1-2.11,8.69,12.41,12.41,0,0,1-11.35,7.51l-22.7.19-9.42.08-9.42-.08-22.7-.19a12.4,12.4,0,0,1-11.35-7.52A27,27,0,0,1,98.5,110c-.66-9.19,3.41-18.93,11.17-24.3,5.75-4,11.8-4.24,17.4-4.5a47.3,47.3,0,0,1,13.84,1.4,12.92,12.92,0,0,0,6.36,0A47.17,47.17,0,0,1,161,81.18c5.63.26,11.66.52,17.42,4.5C186.21,91.05,190.28,100.79,189.64,110Z"/></g></g></svg>